HIERARCHY
ROOT Hips
{
	OFFSET 1.893923 102.722656 -8.236155
	CHANNELS 6 Xposition Yposition Zposition Xrotation Yrotation Zrotation
	JOINT Chest
	{
		OFFSET -1.037651 13.604309 0.015114
		CHANNELS 3 Xrotation Yrotation Zrotation
		JOINT Chest2
		{
			OFFSET -0.312220 21.423416 0.079112
			CHANNELS 3 Xrotation Yrotation Zrotation
			JOINT Chest3
			{
				OFFSET 1.897162 14.804993 0.181537
				CHANNELS 3 Xrotation Yrotation Zrotation
				JOINT Neck
				{
					OFFSET 2.323521 17.036316 1.726632
					CHANNELS 3 Xrotation Yrotation Zrotation
					JOINT Head
					{
						OFFSET 0.694339 10.411438 0.973480
						CHANNELS 3 Xrotation Yrotation Zrotation
						End Site
						{
							OFFSET 0.767249 10.406372 0.972795
						}
					}
				}
				JOINT LeftCollar
				{
					OFFSET -0.668137 12.951752 5.797403
					CHANNELS 3 Xrotation Yrotation Zrotation
					JOINT LeftUpArm
					{
						OFFSET 5.224760 -7.549072 14.973740
						CHANNELS 3 Xrotation Yrotation Zrotation
						JOINT LeftLowArm
						{
							OFFSET -19.399715 -26.073349 9.141142
							CHANNELS 3 Xrotation Yrotation Zrotation
							JOINT LeftHand
							{
								OFFSET -28.209763 -9.760124 -3.145950
								CHANNELS 3 Xrotation Yrotation Zrotation
								End Site
								{
									OFFSET -6.165413 -2.133125 -0.687559
								}
							}
						}
					}
				}
				JOINT RightCollar
				{
					OFFSET -1.456007 13.903152 -2.528052
					CHANNELS 3 Xrotation Yrotation Zrotation
					JOINT RightUpArm
					{
						OFFSET 2.764152 -2.760803 -17.124075
						CHANNELS 3 Xrotation Yrotation Zrotation
						JOINT RightLowArm
						{
							OFFSET -24.387486 -21.908829 -8.061584
							CHANNELS 3 Xrotation Yrotation Zrotation
							JOINT RightHand
							{
								OFFSET -20.030798 18.726868 12.207663
								CHANNELS 3 Xrotation Yrotation Zrotation
								End Site
								{
									OFFSET -4.377922 4.092957 2.668097
								}
							}
						}
					}
				}
			}
		}
	}
	JOINT LeftUpLeg
	{
		OFFSET 0.824193 0.051559 9.986853
		CHANNELS 3 Xrotation Yrotation Zrotation
		JOINT LeftLowLeg
		{
			OFFSET -4.872454 -46.958336 -3.893925
			CHANNELS 3 Xrotation Yrotation Zrotation
			JOINT LeftFoot
			{
				OFFSET 9.172434 -41.638023 -13.516984
				CHANNELS 3 Xrotation Yrotation Zrotation
				JOINT LeftToe
				{
					OFFSET -16.552572 -16.890844 0.520729
					CHANNELS 3 Xrotation Yrotation Zrotation
					End Site
					{
						OFFSET -22.357651 -3.479151 6.898542
					}
				}
			}
		}
	}
	JOINT RightUpLeg
	{
		OFFSET -0.824178 -0.051758 -9.986856
		CHANNELS 3 Xrotation Yrotation Zrotation
		JOINT RightLowLeg
		{
			OFFSET -20.075781 -42.737106 3.809856
			CHANNELS 3 Xrotation Yrotation Zrotation
			JOINT RightFoot
			{
				OFFSET 10.426120 -38.528721 20.184483
				CHANNELS 3 Xrotation Yrotation Zrotation
				JOINT RightToe
				{
					OFFSET 0.465967 -23.291910 4.102002
					CHANNELS 3 Xrotation Yrotation Zrotation
					End Site
					{
						OFFSET -13.891170 -19.093822 -1.420388
					}
				}
			}
		}
	}
}
MOTION
Frames: 10
Frame Time: 0.033333
2.799116 105.275810 -1.111722 21.799450 83.346422 -18.521916 -4.155910 -1.246243 3.326355 -1.536606 0.064724 0.978658 -0.889498 3.174861 6.622543 -2.620412 0.108255 -1.972064 -0.000000 0.000000 0.000002 4.565132 9.435454 4.727594 9.756675 -1.422516 17.168980 -14.195563 -2.891843 15.848624 0.000006 -0.000000 -0.000003 -12.235185 -10.729321 3.716231 5.036937 -10.260387 22.807591 25.375616 -6.770170 68.217259 -0.000000 0.000002 -0.000003 -10.040352 -0.258433 6.994218 -8.766890 4.436652 -3.254255 0.229986 -8.282205 -7.638596 -0.000001 0.000003 0.000000 6.684669 0.741808 25.066437 19.035416 -18.909018 -17.569820 -16.289156 12.926108 -50.191184 0.000001 -0.000004 -0.000002 
2.801116 105.280510 -1.112550 21.758917 83.355451 -18.613884 -4.174645 -1.222707 3.016234 -1.494449 -0.065654 2.024555 -0.874159 3.643553 5.923189 -2.710113 -0.086833 -1.549897 -0.000001 0.000001 -0.000002 4.380739 8.780259 4.740951 9.898371 -1.434592 16.971596 -14.102241 -2.690708 16.228306 -0.000003 -0.000002 -0.000000 -12.703301 -11.836227 3.082708 5.119578 -10.676571 22.883529 25.145732 -6.482364 68.783939 -0.000001 0.000003 -0.000003 -9.971031 -0.273931 7.306455 -8.862294 4.611631 -3.566125 0.371854 -8.543886 -7.566128 -0.000002 0.000001 0.000001 6.727737 0.709123 25.081677 18.946084 -18.908238 -17.537769 -16.284708 12.936390 -50.078732 0.000001 -0.000002 -0.000000 
2.804837 105.281746 -1.110054 22.775372 83.424395 -19.292370 -4.171556 -1.228657 3.366901 -1.953613 0.054501 -0.662005 -0.683075 3.421894 7.909978 -2.638537 -0.084539 -1.660967 -0.000001 0.000000 -0.000001 4.244767 8.738740 4.566918 10.038214 -1.238468 17.025237 -13.814248 -2.796577 16.605754 0.000002 -0.000001 -0.000004 -12.283323 -10.637637 3.454469 5.128461 -11.729451 23.570614 24.844458 -6.604125 68.210579 0.000005 -0.000003 -0.000000 -10.059337 -0.322935 7.191301 -8.729585 4.652340 -3.887839 0.313176 -8.399847 -7.587773 -0.000000 -0.000001 -0.000001 6.690777 0.742520 24.775260 18.980836 -18.732431 -17.460540 -16.314042 12.638778 -50.659858 0.000001 0.000001 0.000001 
2.808547 105.281143 -1.105091 22.507478 83.492881 -19.142179 -3.991153 -1.270818 4.154299 -2.053024 0.128679 -1.819925 -0.727995 3.519799 8.442051 -2.676226 -0.334537 -1.665364 -0.000001 0.000000 -0.000000 4.189016 8.676557 4.490741 9.979310 -1.041563 17.005100 -13.578123 -2.994424 16.413122 -0.000003 -0.000003 -0.000005 -12.019898 -10.202308 3.534733 5.034791 -12.372163 23.994946 24.670184 -6.576679 67.835192 0.000003 -0.000003 -0.000000 -10.017738 -0.289883 7.325727 -8.668454 4.745771 -3.918968 0.252222 -8.367413 -7.633797 0.000001 0.000003 -0.000000 6.742666 0.716748 24.945555 19.090483 -18.774851 -17.215099 -16.300737 12.866388 -51.107925 0.000003 0.000001 0.000001 
2.816630 105.281769 -1.105575 22.777455 83.385142 -19.050245 -4.014013 -1.239830 3.761541 -2.141151 0.126835 -1.941957 -0.670130 3.476424 8.684587 -2.806026 -0.306565 -1.907999 -0.000001 0.000001 -0.000002 4.091469 8.545327 4.563275 9.927572 -1.079781 17.115220 -13.715291 -2.970870 15.851440 -0.000005 -0.000001 -0.000001 -11.902317 -9.852106 3.731270 5.088213 -12.142412 23.932592 24.617405 -6.594943 67.648598 0.000003 -0.000001 0.000002 -10.063692 -0.297015 6.702535 -8.667483 4.423863 -3.365172 0.031300 -8.037398 -7.862596 -0.000002 0.000001 -0.000001 6.727397 0.747444 24.628933 19.137840 -18.654959 -17.119302 -16.386945 12.948707 -51.307438 0.000003 -0.000000 -0.000000 
2.831996 105.282562 -1.103978 22.644531 83.232132 -18.910571 -3.903095 -1.272980 4.167496 -2.271191 0.165864 -2.662713 -0.707308 3.490090 9.077237 -2.775762 -0.251515 -2.001109 -0.000000 -0.000000 -0.000001 4.017524 8.759416 4.529273 9.934794 -0.852186 17.285728 -13.455001 -3.076167 15.589340 0.000002 0.000000 -0.000003 -11.833963 -9.460172 3.861386 5.083490 -12.274012 23.973271 24.412126 -6.766367 67.311624 0.000003 -0.000002 0.000000 -10.072948 -0.321318 6.746393 -8.605857 4.416332 -3.434585 -0.024028 -7.711864 -7.521376 -0.000002 0.000001 0.000000 6.741173 0.746311 24.519921 19.302673 -18.496407 -16.815941 -16.439692 13.068994 -51.490966 0.000000 -0.000002 -0.000004 
2.857343 105.287453 -1.100736 22.441432 83.293412 -18.849212 -3.840413 -1.301346 4.472289 -2.299397 0.158380 -2.658099 -0.730946 3.514890 9.019731 -2.807046 -0.208662 -2.218832 -0.000001 -0.000000 0.000000 3.984115 8.257355 4.693388 9.800193 -1.237081 17.091741 -13.841810 -3.013374 15.440920 0.000000 -0.000002 -0.000004 -11.796468 -9.138172 4.163212 5.151987 -11.868572 23.787174 24.807971 -7.011592 67.181146 -0.000000 -0.000001 -0.000002 -9.911523 -0.302020 6.736716 -8.704846 4.343118 -3.192508 -0.041103 -7.814813 -7.757626 -0.000000 0.000001 -0.000000 6.854846 0.756898 24.503450 19.404801 -18.392566 -16.597527 -16.532133 13.363857 -51.612106 0.000000 -0.000002 -0.000000 
2.885572 105.282875 -1.092535 22.859757 83.388366 -19.328527 -3.841751 -1.320808 4.927829 -2.383524 0.075265 -2.493295 -0.626253 3.723405 8.639780 -2.983534 -0.419782 -2.251698 0.000000 0.000001 -0.000002 4.065185 7.868177 4.558615 9.677420 -0.844913 17.210460 -13.668161 -3.020824 15.007900 0.000002 0.000000 -0.000005 -11.961393 -9.544732 3.824601 5.119631 -12.309504 23.953742 24.459655 -6.860057 66.478272 0.000001 0.000000 -0.000001 -9.833141 -0.275981 6.771444 -8.806647 4.329936 -2.948208 -0.060714 -7.869379 -7.892370 0.000001 0.000003 -0.000000 6.927656 0.733470 24.466369 19.452497 -18.297510 -16.348346 -16.634086 13.632614 -51.777612 0.000003 0.000001 0.000001 
2.922962 105.282394 -1.087328 23.642632 83.136127 -19.732995 -4.035587 -1.312491 4.485349 -2.504793 0.093626 -3.170624 -0.515021 3.447911 9.342976 -2.962494 -0.366169 -2.196485 -0.000000 0.000000 -0.000001 4.051775 8.457055 4.469866 9.599075 -0.955160 17.229480 -13.656524 -3.280949 15.443102 0.000002 -0.000001 0.000001 -12.289624 -9.857383 3.712580 5.212206 -11.656469 23.406228 24.811239 -6.691355 67.090831 -0.000001 0.000000 -0.000001 -9.903093 -0.295253 6.813522 -8.662832 4.596357 -3.548429 -0.197654 -7.478033 -7.784573 0.000001 -0.000001 -0.000001 6.860578 0.761768 24.380157 19.229508 -18.525819 -16.822614 -16.565258 13.327331 -51.663421 0.000003 0.000003 0.000001 
2.975327 105.286507 -1.084670 23.862256 83.024972 -19.948008 -4.022146 -1.329281 4.726017 -2.759092 0.029023 -3.462367 -0.277034 3.064002 9.550316 -3.007801 -0.348213 -2.162002 0.000000 -0.000001 0.000002 4.077450 8.927611 4.392003 9.621526 -1.217742 16.982343 -13.654722 -3.194299 15.482388 -0.000003 -0.000001 -0.000003 -12.363967 -10.188235 3.570247 5.219459 -11.512630 23.314480 24.629894 -6.397240 67.292417 0.000003 0.000003 -0.000004 -9.858871 -0.285586 6.613301 -8.669553 4.579028 -3.484714 -0.266649 -7.385289 -7.961400 -0.000002 0.000001 -0.000000 6.889466 0.759617 24.141199 19.450755 -18.335679 -16.581428 -16.742428 13.681134 -51.668636 0.000001 -0.000000 -0.000004 
